<?xml version="1.0" standalone="no"?>
<!DOCTYPE svg PUBLIC "-//W3C//DTD SVG 20010904//EN"
 "http://www.w3.org/TR/2001/REC-SVG-20010904/DTD/svg10.dtd">
<svg version="1.0" xmlns="http://www.w3.org/2000/svg"
 width="500.000000pt" height="500.000000pt" viewBox="0 0 500.000000 500.000000"
 preserveAspectRatio="xMidYMid meet">
<metadata>
Created by potrace 1.11, written by Peter Selinger 2001-2013
</metadata>
<g transform="translate(0.000000,500.000000) scale(0.100000,-0.100000)"
fill="#000000" stroke="none">
<path d="M2223 4990 c-849 -83 -1576 -581 -1954 -1340 -76 -151 -133 -305
-174 -465 -61 -237 -70 -321 -70 -615 0 -232 3 -281 23 -393 94 -524 321 -959
691 -1327 469 -466 1130 -724 1786 -696 630 26 1195 273 1630 710 458 461 705
1060 705 1709 0 277 -36 504 -122 765 -285 867 -1042 1500 -1958 1637 -128 19
-431 27 -557 15z m362 -445 c202 -52 374 -227 414 -423 58 -282 -96 -556 -366
-652 l-71 -25 95 -125 c121 -159 305 -436 344 -517 43 -90 69 -202 69 -298 l0
-81 235 -98 c129 -54 243 -96 252 -94 10 2 17 11 17 20 -1 8 -42 69 -91 134
-100 133 -477 707 -500 762 -18 44 -8 69 41 107 50 38 105 44 133 13 35 -38
612 -955 649 -1031 53 -111 57 -185 11 -228 -20 -19 -31 -20 -102 -16 -73 4
-107 15 -382 121 -167 64 -306 116 -310 116 -5 0 -23 -28 -42 -61 -124 -215
-418 -354 -647 -306 -165 35 -337 164 -429 325 -11 17 -25 32 -31 32 -6 0
-141 -50 -300 -111 -261 -101 -297 -112 -369 -116 -70 -5 -83 -3 -105 15 -22
18 -25 28 -25 84 0 52 7 77 37 140 40 85 606 986 647 1031 22 25 32 28 64 24
42 -6 103 -47 119 -81 7 -17 6 -32 -5 -58 -22 -53 -378 -595 -490 -748 -55
-74 -100 -141 -101 -150 -2 -30 43 -18 259 69 l220 90 -2 33 c-5 64 18 200 49
286 73 207 205 420 396 640 35 40 62 75 60 76 -1 2 -32 13 -68 25 -225 73
-380 291 -380 531 0 255 172 477 421 544 71 19 210 20 284 1z m-750 -2522
c146 -35 294 -132 497 -324 l118 -111 119 110 c276 256 449 342 686 342 191 0
329 -54 450 -175 119 -118 178 -270 178 -455 1 -362 -284 -642 -653 -642 -224
0 -372 76 -645 331 l-140 130 -115 -112 c-176 -174 -303 -261 -455 -314 -73
-25 -92 -28 -225 -28 -127 0 -154 3 -219 24 -90 30 -205 104 -261 169 -50 58
-114 185 -137 272 -22 86 -22 235 1 319 95 349 444 552 801 464z"/>
<path d="M2339 4347 c-104 -29 -190 -104 -238 -206 -22 -48 -26 -69 -26 -151
1 -76 5 -105 23 -143 30 -66 114 -151 181 -184 50 -25 67 -28 156 -28 87 0
107 3 155 26 77 37 131 87 168 158 103 191 30 412 -167 504 -74 35 -177 45
-252 24z"/>
<path d="M2390 3213 c-220 -265 -370 -545 -370 -691 0 -30 2 -33 23 -26 29 9
182 100 213 128 41 37 83 158 110 321 14 87 31 156 40 166 16 18 89 18 107 0
5 -5 21 -77 34 -158 18 -114 31 -167 60 -231 35 -80 38 -84 112 -131 75 -48
135 -81 146 -81 13 0 3 85 -21 156 -58 181 -183 379 -360 571 l-39 42 -55 -66z"/>
<path d="M2441 2540 c-8 -28 -31 -61 -64 -94 -46 -45 -67 -57 -172 -95 -66
-24 -124 -47 -129 -52 -28 -25 123 -176 211 -210 86 -33 201 -37 281 -10 107
36 191 103 240 190 l22 39 -116 43 c-135 50 -203 102 -239 182 l-21 49 -13
-42z"/>
<path d="M1535 1826 c-142 -45 -259 -161 -299 -296 -18 -60 -21 -173 -5 -239
28 -123 132 -246 245 -290 172 -67 370 -23 571 127 80 59 293 257 293 272 0 4
-53 60 -119 124 -239 237 -384 317 -571 315 -41 0 -93 -6 -115 -13z"/>
<path d="M3130 1825 c-80 -23 -151 -57 -234 -115 -81 -56 -319 -273 -324 -296
-6 -24 244 -264 345 -331 137 -91 184 -107 323 -108 112 0 118 1 185 34 179
88 278 277 245 470 -25 150 -108 263 -237 323 -55 26 -80 31 -157 34 -61 3
-109 -1 -146 -11z"/>
</g>
</svg>
